<svg width="298" height="40" viewBox="0 0 298 40" fill="none" xmlns="http://www.w3.org/2000/svg">
<path d="M1.67569 34.3488C1.92368 34.3488 2.06539 34.2304 1.99454 34.1C1.92368 33.9697 1.92368 33.6498 2.20711 33.8394C2.49053 34.029 2.99835 34.8464 3.04558 34.6569C3.09282 34.4673 3.29358 33.946 3.34082 34.1474C3.38806 34.3488 3.73053 34.7398 4.03757 34.6806C4.72136 34.6529 5.40554 34.7247 6.06879 34.8938H6.5766C6.81824 34.9079 7.05673 34.9557 7.28516 35.036C7.5804 35.0952 8.00554 35.036 8.12363 35.2374C8.40706 35.5928 8.56059 35.0952 8.85582 35.2374L9.11563 35.344C9.62501 35.2297 10.1533 35.2297 10.6627 35.344H11.0524C11.572 35.344 12.1743 35.0952 12.6112 35.2255L13.2253 35.4032C14.0297 35.1922 14.8521 35.0574 15.6817 35.0004L16.4611 35.0715C17.2253 35.2252 18.0176 35.1511 18.7403 34.8583C19.0918 34.7336 19.4753 34.7336 19.8268 34.8583C19.9401 34.9165 20.0656 34.9469 20.1929 34.9469C20.3202 34.9469 20.4457 34.9165 20.559 34.8583C20.9251 34.7398 21.4211 34.2778 21.8816 34.8583C21.9699 34.8872 22.065 34.8872 22.1532 34.8583C22.3776 34.4792 22.6256 34.9294 22.85 34.8583C23.0871 34.7055 23.3459 34.5896 23.6176 34.5147H23.8656C24.4364 34.6097 25.019 34.6097 25.5898 34.5147C26.4692 34.3852 27.3349 34.175 28.176 33.8868L28.4004 34.0526C28.5525 34.1392 28.7268 34.1786 28.9012 34.166C29.0757 34.1533 29.2425 34.0892 29.3806 33.9816C29.7853 33.8128 30.21 33.6973 30.6442 33.638C31.0558 33.4826 31.4917 33.4024 31.9314 33.4011C32.4038 33.4721 32.7345 33.0575 33.1714 33.2707C33.1714 33.2707 33.2659 33.3655 33.2777 33.3537C33.7501 33.1996 34.0808 32.7258 34.7185 32.9627L36.2419 32.7968L36.7143 32.5836C37.5026 32.2835 38.317 32.0574 39.147 31.9083L39.891 31.8135C40.198 31.8135 40.5523 31.8135 40.5051 31.4344C40.6074 31.3543 40.7302 31.305 40.8594 31.2922L41.6388 31.7424C42.1142 31.3417 42.6332 30.9959 43.1858 30.7117C43.6776 30.5005 44.1482 30.2426 44.5912 29.9417C45.2755 29.8406 45.9661 29.7891 46.6578 29.7876C47.6353 29.296 48.5713 28.7255 49.4566 28.0816H50.2597H50.6966C51.2753 27.7854 51.3225 27.0864 50.8147 26.5178L50.5667 25.9846C50.2591 25.3997 50.0023 24.7893 49.7991 24.1602C49.2726 22.824 49.0429 21.3887 49.126 19.9544L49.2913 19.0658C49.3622 18.0825 49.5039 16.8859 49.5983 16.4002L49.4803 15.9263C49.4503 15.4281 49.5479 14.9306 49.7637 14.4809L49.929 14.0189C50.1888 13.5213 50.4959 12.9645 50.614 12.7631C50.8277 12.3889 50.9981 11.9914 51.1218 11.5783C51.1218 11.3651 51.8776 10.986 51.9484 10.8675V10.7609L52.2791 9.99079C53.0838 9.15299 53.9355 8.36189 54.8299 7.62133L55.0897 7.06451C55.2787 6.64985 55.881 6.6854 55.9754 6.19966C55.9754 5.95087 56.6604 5.77316 57.0265 5.54806C57.1934 5.4486 57.3446 5.32483 57.4752 5.18079C57.617 5.01493 57.6642 4.78983 57.8295 4.65951C57.9948 4.52919 58.1366 5.02678 58.3846 4.65951C58.6326 4.29224 59.1049 4.65951 58.975 4.23301L60.4748 3.21414L61.1125 2.83504C61.892 2.51516 63.1202 1.98203 63.8405 1.65031L64.4192 1.27118C64.761 1.07334 65.1381 0.944556 65.5293 0.892079C66.1279 0.728009 66.7156 0.526193 67.2889 0.287856C67.5248 0.146065 67.7891 0.0586963 68.0628 0.0320585C68.3365 0.00542058 68.6127 0.0401928 68.8713 0.133853C68.9422 0.133853 69.0839 0.133853 69.1902 0.133853H69.8515C70.7012 -0.0218635 71.5701 -0.0418594 72.426 0.074613H73.0755H73.7368C74.3745 0.173443 75.0171 0.23673 75.6618 0.264174C76.3126 0.490248 76.9478 0.759369 77.5631 1.06978C78.7522 1.65459 79.8731 2.3698 80.9052 3.2023L80.9878 3.78282L81.0587 4.25671C81.4681 4.63958 81.8219 5.07828 82.1097 5.55992L82.2987 5.92718C82.5112 6.34184 82.7002 6.75649 82.8891 7.17115C82.9482 7.27778 82.8891 7.44363 83.019 7.51471C83.274 7.62677 83.5224 7.75336 83.763 7.89384C83.952 8.0597 83.4914 8.33218 83.8811 8.55728C84.0819 8.67575 84.0937 9.00748 84.1527 9.24443C84.3421 9.80455 84.465 10.3851 84.5188 10.9741V11.6376C84.3653 12.3603 83.9284 13.8293 83.5623 14.9074L83.2198 15.8789L82.9836 16.5897C82.3183 17.2236 81.695 17.9003 81.1177 18.6156L80.5391 18.8881L80.0549 19.1132C79.6403 19.6504 79.1512 20.1251 78.6023 20.523C78.1772 20.8074 76.9608 21.8262 76.6892 22.075C76.4176 22.3238 75.6145 22.8688 75.7444 23.0584C75.8743 23.2479 74.7642 23.4375 74.3155 23.6626C73.8667 23.8877 71.9536 25.878 70.2648 27.0035L68.647 27.9276C66.6394 29.1123 64.5491 30.1312 62.4824 31.2093L62.1163 31.3989C61.6558 31.5529 61.9746 31.9912 62.8013 32.3822C64.5653 33.0306 66.3678 33.5688 68.1982 33.9934L69.3201 34.1948L69.9696 34.3133C70.6045 34.2284 71.2478 34.2284 71.8827 34.3133C72.2134 34.3962 73.3825 34.3133 73.6778 34.3133L73.9258 34.4081C74.2328 34.5384 74.3391 33.9816 74.6816 34.2896C74.7503 34.314 74.8254 34.314 74.8941 34.2896C75.0831 34.2304 76.701 33.9934 76.8899 33.9816C77.0789 33.9697 77.197 33.8631 77.3505 33.8631C78.1063 33.9223 78.8621 33.1641 79.6415 33.8631C80.2081 33.6895 80.7837 33.5472 81.3657 33.4366C82.1097 33.2707 84.0465 32.6428 83.8929 32.2519L84.5543 32.7495L84.944 33.0456C85.3455 32.9035 86.1249 32.6665 86.6918 32.5007C87.2586 32.3348 89.1835 31.7187 89.8094 31.6358L90.211 31.387C90.6597 31.1145 91.0731 31.5055 91.0849 31.4581L91.4392 30.4037L93.7302 30.2971C93.9486 30.3255 94.1653 30.365 94.3797 30.4155C94.545 30.4155 95.1119 29.7758 95.5607 29.7995C96.5152 29.6113 97.446 29.3172 98.3359 28.9228L98.9854 28.7332C99.4282 28.5048 99.9166 28.3793 100.414 28.366C100.639 28.366 100.899 28.0816 101.17 27.9987H101.324C101.548 27.9987 101.855 27.8091 102.02 27.4537L102.552 27.8565C102.552 27.8565 103.048 27.5129 103.355 27.43L103.603 27.3589C104.003 27.357 104.401 27.2972 104.784 27.1812L104.949 26.8969C105.041 26.7627 105.18 26.6693 105.339 26.6362C105.906 26.6362 106.756 26.6362 106.992 26.3519L107.488 25.7122C108.327 25.4634 109.177 25.179 109.366 25.0843H109.555C109.956 25.0843 110.405 25.1672 110.441 24.6341C110.572 24.5802 110.712 24.552 110.854 24.5511C111.433 24.5511 111.834 24.4682 112.035 23.9232C112.117 23.627 112.401 24.0061 112.436 23.9824L112.826 23.6744L115.188 22.6556L115.932 22.5015L116.593 22.3712C117.196 22.075 118.199 21.613 118.825 21.3524L119.345 21.0325C119.557 20.8903 120.101 21.3879 120.077 20.7481C120.077 20.6415 120.644 20.4993 120.963 20.3809L121.317 20.2387C121.888 20.09 122.445 19.8918 122.982 19.6464C123.478 19.4094 125.438 18.6156 126.159 18.2365C127.289 17.8533 128.44 17.5368 129.607 17.2887C130.104 17.0319 130.617 16.8063 131.142 16.6134C131.461 16.5424 132.43 16.0329 132.713 15.9737C133.203 15.9969 133.687 16.0845 134.154 16.2343C134.307 16.2343 134.496 16.2343 134.012 16.0329L134.142 15.559C134.225 15.2747 134.378 15.2036 134.662 15.2865C134.945 15.3695 135.134 15.5235 135.158 15.4998L136.114 14.5994C136.896 14.7173 137.685 14.7846 138.476 14.8008C138.334 14.8008 138.264 14.5402 138.594 14.4098C139.296 14.165 140.014 13.971 140.744 13.8293L141.051 13.6161L141.393 13.3673C142.162 13.2645 142.909 13.0322 143.601 12.6801H145.066C145.233 12.5333 145.432 12.427 145.647 12.3695C145.862 12.3119 146.088 12.3047 146.306 12.3484C146.589 12.4787 147.321 12.3484 147.203 11.9456L147.924 11.8508C148.231 11.8508 148.491 11.6613 148.786 11.8508C148.916 11.8508 149.742 11.4243 150.616 10.9978L151.337 11.0571C151.722 11.1668 152.118 11.2382 152.518 11.2703C152.878 11.1445 153.22 10.969 153.533 10.749C153.865 10.5601 154.212 10.4016 154.572 10.2751L154.82 10.1922C155.194 10.2607 155.551 10.4015 155.871 10.6069V10.1448C155.871 10.1448 156.308 10.0263 156.556 10.0145L157.312 9.95525C157.916 9.8743 158.527 9.8743 159.131 9.95525C159.247 10.0747 159.378 10.1782 159.521 10.2633C159.553 10.2292 159.575 10.187 159.586 10.1411C159.596 10.0953 159.594 10.0474 159.58 10.0027C159.58 9.89603 159.509 9.50506 159.58 9.48137C159.924 9.58415 160.251 9.74002 160.548 9.94341L160.642 9.32735C160.807 9.27138 160.986 9.27138 161.15 9.32735C161.422 9.61168 161.54 9.32734 161.729 9.26811C161.918 9.20887 162.06 9.46951 162.237 9.49321H162.426L163.323 9.12595C164.017 8.85914 164.744 8.69164 165.484 8.62836L165.945 8.36772C166.156 8.22611 166.405 8.15054 166.659 8.15054C166.914 8.15054 167.162 8.22611 167.374 8.36772C167.443 8.39211 167.518 8.39211 167.586 8.36772L168.236 7.65687C169.145 7.90567 169.747 8.14262 169.594 8.16632C169.44 8.19001 169.039 8.35588 169.37 8.42696L169.464 8.54542C169.759 8.8653 169.866 8.48619 170.043 8.47434C170.22 8.46249 170.397 8.2374 170.539 8.14262L170.94 7.90568C171.684 7.70427 172.121 7.73981 171.838 7.97676V8.10708V8.20186C171.911 8.27814 172.003 8.33445 172.104 8.36553C172.205 8.39661 172.313 8.40143 172.416 8.37956L172.475 8.28478L172.853 7.56209C173.621 7.56209 174.495 7.44362 174.802 7.39623H174.944L175.487 7.58579C175.967 7.47556 176.44 7.33711 176.904 7.17115C177.14 7.07637 177.931 7.32515 178.085 7.28961C178.238 7.25407 178.876 7.28961 178.982 7.21853C179.089 7.14745 179.526 6.98158 179.691 7.06451C180.019 7.20964 180.372 7.28624 180.73 7.28961C181.387 7.10562 182.03 6.87602 182.655 6.60247L183.104 6.67355L184.072 6.82757C184.994 6.5511 185.959 6.4467 186.918 6.51954L187.521 6.57878H187.851C188.303 6.46746 188.77 6.43142 189.233 6.47215C189.982 6.43207 190.724 6.30078 191.441 6.08118L191.796 6.31814L192.162 6.55509C192.478 6.51977 192.788 6.44001 193.083 6.31814C193.992 6.81573 195.043 6.31814 195.976 6.59063L196.295 6.68541C196.626 6.87496 196.992 6.95789 197.11 6.86311C197.589 6.70488 198.107 6.70488 198.586 6.86311C199.118 7.07636 201.645 7.52656 203.026 7.84644L204.207 8.16632C204.703 8.29664 205.188 8.52173 205.707 8.6639L206.298 8.82976L207.738 10.0145C208.084 10.2896 208.411 10.5863 208.719 10.903C208.719 10.9978 208.719 11.4006 208.719 11.5428C208.719 11.685 209.522 11.8508 209.734 11.8982V12.4195C209.973 12.5137 210.229 12.5561 210.486 12.5438C210.742 12.5316 210.993 12.465 211.222 12.3484C211.636 12.1115 213.064 12.609 213.312 12.6209C213.823 12.5677 214.338 12.6037 214.836 12.7275L215.273 12.3958L215.344 12.3366C215.617 12.3171 215.889 12.2815 216.159 12.2299C216.67 12.2368 217.18 12.2884 217.682 12.384C217.859 12.384 218.284 12.609 218.414 12.6209C218.544 12.6327 219.808 12.6209 220.918 12.5498L221.922 12.6091C222.209 12.6803 222.508 12.6803 222.795 12.6091C223.178 12.4745 223.594 12.4745 223.976 12.6091L224.331 12.8223H225.653H225.972C226.279 12.8223 226.752 12.8223 226.858 12.9052L227.153 13.2607C227.408 13.0568 227.676 12.8707 227.956 12.7038C228.157 12.5854 229.054 13.1066 229.468 13.2014H230.224C230.582 13.1348 230.945 13.0952 231.31 13.0829C231.523 13.0829 232.491 13.2133 232.869 13.2607H233.27L233.766 13.3199L235.243 13.545C235.776 13.5544 236.309 13.5187 236.837 13.4384C237.168 13.4384 238.254 13.5213 238.797 13.4384C239.34 13.3554 241.454 13.9952 242.505 13.9952L243.391 14.2677C243.887 14.4335 244.135 13.8649 244.572 14.161L244.879 14.3387C245.267 14.4314 245.672 14.4314 246.06 14.3387H246.249C246.627 14.2795 247.123 14.0781 247.135 14.6823C247.135 14.6823 247.572 14.8008 247.642 14.6823L248.056 14.3269C248.544 14.425 249.022 14.5677 249.485 14.7534C249.768 14.8719 250.666 14.5757 250.831 14.6586C250.996 14.7416 251.74 14.9785 251.87 14.8837C252 14.789 252.39 14.6705 252.319 14.8837C252.248 15.097 253.205 14.8837 253.5 14.8837H253.795H254.693C255.556 14.8807 256.404 15.1098 257.149 15.5472L257.562 15.1444C258.035 14.6823 258.271 15.2628 258.637 15.2392C258.84 15.1948 259.051 15.1941 259.254 15.237C259.458 15.2798 259.65 15.3654 259.818 15.4879C260.025 15.4372 260.216 15.3354 260.373 15.1918C260.538 15.0496 261.554 15.3576 261.967 15.4169H262.381C262.782 15.4169 263.231 15.3102 263.562 15.6775C263.657 15.7129 263.762 15.7129 263.857 15.6775L264.294 14.9785C264.86 15.1932 265.408 15.4507 265.935 15.7486C266.639 15.8014 267.346 15.8014 268.049 15.7486L268.321 15.95C268.781 16.2817 268.935 15.8078 269.23 15.95C269.525 16.0921 270.069 16.2817 270.187 16.1869C270.6 15.8552 270.883 16.2699 271.226 16.1869C271.573 16.1738 271.918 16.247 272.23 16.4002L272.525 16.5068C273.241 16.4591 273.959 16.4591 274.674 16.5068C275.383 16.5068 277.438 16.7674 277.674 16.8385C277.91 16.9096 278.489 16.9333 278.678 17.0162C279.053 17.0454 279.431 17.0215 279.8 16.9452C280.352 17.027 280.88 17.2292 281.347 17.5375L281.784 16.9925C282.421 17.1974 283.072 17.3558 283.732 17.4664C284.476 17.5968 286.684 17.8574 286.98 17.9522C287.342 18.0168 287.711 18.0367 288.078 18.0114C288.267 18.0114 289.117 18.1299 289.554 18.2128L289.849 18.4024C290.263 18.6749 290.534 18.9829 291.137 18.5801L291.361 18.4261C291.924 18.5164 292.465 18.7134 292.955 19.0066L293.156 19.2791L293.546 19.8122L295.164 19.6937C295.423 19.6937 296.226 19.6937 296.25 19.7885C296.336 19.9429 296.458 20.0736 296.607 20.1687C296.755 20.2638 296.925 20.3204 297.1 20.3335C297.514 20.3335 298.21 21.151 297.939 21.0325C297.618 20.8879 297.274 20.8035 296.923 20.7837C296.864 20.8429 296.687 21.222 296.852 21.3524H297.03C297.644 21.3524 297.549 21.7315 297.585 22.0632C297.62 22.3949 297.136 22.5608 297.585 22.9162L297.809 23.1176C297.817 23.6047 297.79 24.0918 297.726 24.5748C297.726 24.9658 296.439 25.0369 296.215 25.0606C295.99 25.0842 295.034 25.0606 294.668 25.0606C294.302 25.0606 292.825 24.8118 292.447 24.8592C292.07 24.9065 290.735 24.5393 290.369 24.563C289.882 24.5152 289.392 24.5152 288.905 24.563C288.633 24.6814 287.499 24.172 286.755 24.1128C286.011 24.0535 283.472 23.864 282.728 23.7929C281.984 23.7218 279.859 23.2598 279.587 23.165H279.363L277.733 23.3309C275.973 23.0821 274.06 22.7977 273.458 22.6911H272.915C272.408 22.7021 271.903 22.6177 271.427 22.4423L271.12 22.2883L269.573 22.4779C269.242 22.4779 268.073 22.2291 267.742 22.2765C267.411 22.3238 266.171 21.9447 265.687 21.8973C264.84 21.8786 263.991 21.9142 263.148 22.004L263.007 21.8736C262.699 21.5893 262.44 21.8736 262.168 21.8025C261.882 21.7234 261.59 21.6679 261.294 21.6367C260.928 21.6367 260.55 21.6367 260.184 21.6367C259.818 21.6367 259.535 21.3405 259.369 21.4116C258.72 21.7078 258.188 21.2813 257.539 21.4116C257.17 21.4589 256.797 21.4589 256.429 21.4116H256.11C255.745 21.3386 255.386 21.2397 255.035 21.1154H254.74C254.566 21.1702 254.381 21.1838 254.201 21.155C254.021 21.1262 253.849 21.0559 253.701 20.9495L253.618 20.8785C253.041 21.0473 252.447 21.1507 251.847 21.1865C251.12 21.0926 250.409 20.9013 249.733 20.6178L248.02 20.5467C247.194 20.5467 244.666 20.2861 244.23 20.2269C243.793 20.1676 242.387 19.9307 242.068 19.8596H241.773C241.277 19.8596 240.805 20.061 240.262 19.8596C239.718 19.6582 239.234 20.0018 238.762 19.6819L238.289 19.362C237.629 19.406 236.966 19.406 236.305 19.362C235.845 19.362 233.944 19.3028 233.093 19.2435C232.243 19.1843 229.964 19.0066 229.728 19.0421C229.328 19.0444 228.93 18.9885 228.547 18.8763C228.346 18.8052 227.271 19.1014 226.598 19.1488C225.599 19.0315 224.609 18.8494 223.634 18.6038H220.552C217.505 18.6038 214.588 18.5327 214.068 18.4498L213.679 18.8289C213.596 18.9237 213.253 18.9118 213.076 18.8289C212.899 18.746 212.628 18.3787 212.297 18.6749L211.931 19.0184C211.594 19.3908 211.412 19.8783 211.423 20.3809L211.14 20.6771C211.14 20.7363 211.234 20.914 211.258 21.0325L211.317 21.3405C211.103 21.2627 210.869 21.2627 210.655 21.3405V21.4116V21.5774C210.689 21.9247 210.61 22.2737 210.431 22.5726C210.254 22.9399 209.25 23.8166 208.754 23.7574V24.1839C208.737 24.3606 208.68 24.5312 208.588 24.6829C208.496 24.8347 208.371 24.9637 208.223 25.0606L208.128 25.1316C208.118 25.4335 208.142 25.7356 208.199 26.032L207.738 26.2216H207.62C207.526 26.3401 207.242 26.6836 206.983 26.968C206.478 27.2838 205.923 27.5084 205.341 27.6314L205.223 27.7025L205.093 27.7617C204.927 27.9544 204.777 28.1605 204.644 28.3778C204.503 28.6029 204.007 29.0294 203.652 28.7806L203.581 29.4085V29.6692C203.503 29.7712 203.403 29.8547 203.289 29.9141C203.174 29.9734 203.049 30.0071 202.92 30.0127C202.371 30.0779 201.832 30.2092 201.314 30.4037C200.712 30.6169 198.858 31.3278 198.456 31.4344C197.59 31.6047 196.714 31.7273 195.835 31.8017C195.173 31.8609 192.835 32.3348 192.055 32.4296L191.347 32.2756L190.898 32.1689C190.414 32.1689 189.528 32.2637 188.95 32.2637H188.418C187.887 32.2637 187.344 32.2637 186.812 32.2637C186.718 32.2637 186.576 32.2637 186.517 32.2637C186.198 32.0623 186.033 31.6595 185.43 32.0031C185.23 32.1097 184.757 31.7661 184.309 31.7424C183.529 31.7424 182.891 31.1264 182.029 31.2211C182.029 31.2211 181.935 31.079 181.899 31.0079C181.768 30.8441 181.665 30.66 181.592 30.4629L181.498 30.0364C181.144 30.1312 180.931 30.0364 181.025 29.918L180.931 29.7758C180.789 29.5625 180.612 29.3611 180.447 29.1479L180.069 28.3186V28.0935C179.974 27.8565 179.762 27.3234 179.573 26.9087L179.419 26.5296C179.247 26.1981 179.101 25.8535 178.982 25.4989C178.835 24.8467 178.729 24.1859 178.664 23.5204V23.1531C178.723 22.8034 178.843 22.4666 179.018 22.158C179.3 21.9388 179.6 21.7445 179.915 21.5774C180.253 21.3657 180.524 21.0615 180.695 20.7008L180.86 20.4875C181.049 20.2269 181.64 20.3335 181.651 19.8478V19.599C181.918 19.7028 182.206 19.7394 182.49 19.7056C182.857 19.5638 183.212 19.3934 183.553 19.1961L183.824 19.1014L184.096 19.0066C184.45 19.0066 184.745 18.7815 184.745 18.6156C184.745 18.4498 184.934 17.9403 185.171 17.9403C185.407 17.9403 186.056 17.8811 185.974 17.7982C185.891 17.7152 185.785 17.5138 185.856 17.4546H185.926C186.031 17.4307 186.14 17.4307 186.245 17.4546C187.143 17.6441 187.426 17.0399 187.934 16.649C188.442 16.258 188.324 16.3173 188.572 16.7201L188.855 17.1703C188.973 16.8978 189.162 16.7201 189.268 16.7793C189.375 16.8385 189.776 16.7793 189.729 16.6964L189.658 16.6371L189.268 16.258L191.311 15.3458L192.008 15.0496C192.223 14.9334 192.461 14.8685 192.705 14.86C193.236 15.0767 193.816 15.1423 194.382 15.0496L194.713 14.943C194.953 14.9991 195.204 14.9991 195.445 14.943L195.516 14.8719C195.61 14.789 195.681 14.6112 195.752 14.6112C196.487 14.5335 197.212 14.3745 197.913 14.1373L198.574 13.9952C199.354 13.9123 200.44 13.7582 200.995 13.6635L201.432 13.5094C201.798 13.3673 201.964 13.2133 202.353 13.5094L202.613 13.6872C202.762 13.5961 202.93 13.5393 203.103 13.5208C203.277 13.5024 203.452 13.5228 203.617 13.5805C203.782 13.7108 204.184 13.2725 204.266 13.1422C204.349 13.0119 205.022 13.1422 205.377 13.1422L205.518 12.8223V12.7512C205.648 12.6564 205.436 12.5617 205.058 12.5143C204.488 12.4025 203.903 12.4025 203.333 12.5143L202.991 12.2892C202.677 12.0713 202.335 11.896 201.975 11.7679L201.657 11.6731C201.236 11.6537 200.815 11.714 200.417 11.8508C200.133 11.9811 198.374 11.5072 197.004 11.5072C195.634 11.5072 191.807 11.5073 191.524 11.3888C191.241 11.2703 190.426 11.7679 190.225 11.8508C190.024 11.9338 188.879 11.6494 188.312 11.6613L187.804 11.7679L187.249 11.8982C186.531 11.9601 185.818 12.063 185.112 12.2063L184.639 12.0048L184.427 11.9101C184.261 11.6968 184.084 11.8034 184.037 12.1707L183.458 12.0167L182.903 11.8745C182.153 11.9953 181.395 12.0548 180.636 12.0522L180.081 12.4195L179.892 12.538C179.162 12.3887 178.415 12.3369 177.672 12.384C176.939 12.384 175.097 12.9526 175.062 12.8697C175.012 12.8038 174.94 12.7589 174.859 12.7435C174.778 12.7282 174.695 12.7436 174.625 12.7868C174.448 12.9052 173.822 13.1185 173.444 13.3554L173.338 13.2725C172.83 12.9052 172.369 13.1422 171.885 13.2725C171.533 13.1751 171.162 13.1751 170.81 13.2725C170.303 13.3791 168.531 13.6635 168.023 13.7701C167.243 13.9138 166.442 13.9138 165.661 13.7701L165.402 14.2203C165.295 14.4098 164.811 14.4928 164.48 14.5402C164.15 14.5876 163.736 14.5402 163.37 14.5402C163.225 14.5436 163.084 14.5934 162.969 14.6823C162.812 14.8498 162.613 14.9722 162.393 15.0368C162.173 15.1013 161.939 15.1058 161.717 15.0496L161.162 14.9548C160.248 15.2617 159.313 15.4993 158.363 15.6657C157.312 15.8552 153.71 16.7082 152.6 16.9452L151.585 17.1347C150.849 17.178 150.138 17.4105 149.518 17.81C149.4 17.8809 149.265 17.9178 149.128 17.9166C148.821 17.5257 148.502 17.8574 148.266 17.9166C147.583 18.1992 146.863 18.3827 146.129 18.4616H145.526C144.936 18.81 144.3 19.0732 143.637 19.2435C142.883 19.4383 142.148 19.7 141.44 20.0255C141.051 20.2032 139.704 20.5349 139.374 20.6415L135.205 22.0632L133.705 22.5726C133.517 22.6065 133.337 22.6748 133.174 22.774L132.784 23.1413C132.294 23.2882 131.816 23.4744 131.355 23.6981C131.131 23.8166 130.174 23.9943 129.938 24.1009L129.761 24.2549C129.626 24.403 129.459 24.5176 129.272 24.5895C129.086 24.6615 128.885 24.6889 128.686 24.6696C128.448 24.6956 128.219 24.7724 128.013 24.8947C127.734 25.082 127.432 25.2333 127.115 25.3449L125.805 25.5818C124.812 26.1847 123.778 26.7152 122.711 27.1694C121.927 27.5236 121.162 27.919 120.419 28.3541C120.195 28.4844 119.239 28.6858 119.038 28.7806C118.447 29.0093 117.871 29.2744 117.314 29.5744L116.9 29.8232C116.771 29.8959 116.623 29.9289 116.475 29.918L116.026 29.8232C115.648 30.0246 114.373 30.5696 113.204 31.0079L112.023 31.1975C112.023 31.1975 111.952 31.1975 111.905 31.2685L111.196 31.5529C110.47 31.7941 109.76 32.083 109.071 32.4177C108.716 32.6191 106.957 32.9153 106.236 33.1286C105.516 33.3418 103.367 34.3133 102.812 34.5384C102.257 34.7635 99.9892 35.3203 99.0208 35.5454L98.3004 35.9245L97.6982 36.2444C97.0817 36.2969 96.4745 36.4283 95.8913 36.6354C95.5843 36.7657 93.9664 37.1329 93.1279 37.3344L92.4311 37.5832C91.7934 37.8083 91.1203 37.5002 90.5062 37.9386C90.1165 38.2111 89.3253 38.1281 88.7584 38.2348C87.5775 38.448 86.3965 38.6849 85.2156 38.9219H85.1211C84.386 39.0424 83.6448 39.1215 82.9009 39.1589L81.8853 39.2655C81.224 39.3366 80.5863 39.4432 79.9368 39.5261C79.2872 39.609 78.5669 39.3365 77.9882 39.7749C77.9882 39.7749 77.752 39.7749 77.6694 39.7749C77.1616 40.0118 76.7718 39.1944 76.1223 39.7157L75.8625 39.9408C75.1152 39.8474 74.3842 39.6521 73.6896 39.3603L73.1582 39.5972L72.674 39.8223C72.0635 39.6283 71.4245 39.5402 70.7845 39.5617L70.3003 39.2773C69.9384 39.1988 69.5639 39.1988 69.202 39.2773H68.8359C68.7418 39.1445 68.618 39.0357 68.4745 38.9596C68.3309 38.8835 68.1716 38.8422 68.0093 38.839H67.7258C67.5133 38.839 67.2771 39.0996 67.0763 38.839C66.8755 38.5783 66.1906 38.4954 65.6828 38.4125C64.9332 38.2343 64.1956 38.0087 63.4744 37.7372L63.2855 37.6779C63.1083 37.6779 62.9902 37.4765 63.0493 37.3699C63.1083 37.2633 63.2146 36.9552 63.1792 36.9434C63.0511 36.9416 62.9263 36.9834 62.8249 37.0619C62.6399 37.1478 62.4384 37.1924 62.2344 37.1924C62.0305 37.1924 61.829 37.1478 61.644 37.0619L61.4078 36.8486L61.2897 36.7301C61.2306 36.5524 61.1007 36.4458 61.0063 36.4932C60.9118 36.5406 60.652 36.3984 60.5575 36.2207C60.463 36.043 60.0733 35.5336 60.0379 35.6402C60.0025 35.7468 59.8135 35.9838 59.719 35.8771C59.4268 35.668 59.1094 35.4968 58.7743 35.3677L58.4908 35.2966C57.7941 35.0952 57.6642 34.9412 57.3099 34.1119V33.9579C57.2715 33.9156 57.2225 33.8843 57.168 33.8675C57.1134 33.8506 57.0554 33.8487 56.9999 33.8621C56.9444 33.8754 56.8935 33.9034 56.8525 33.9432C56.8115 33.9829 56.7818 34.033 56.7667 34.0882L56.4596 33.8986L56.3533 33.8276C55.8374 33.8483 55.3258 33.9318 54.8299 34.0763L54.2395 34.2896L53.0585 34.7043C51.7477 35.1426 50.2479 35.6283 49.7164 35.7824C49.185 35.9364 47.2601 36.4932 46.6224 36.6354C45.9847 36.7775 43.8826 37.2514 43.3394 37.441C42.7961 37.6305 41.0483 37.8082 40.8003 37.9267H40.5878H39.7965C38.9817 38.0926 37.659 38.3295 36.8678 38.4598C36.0765 38.5902 33.5966 38.8982 33.1714 39.0404H32.8053H32.4038C31.9551 39.0404 31.4118 39.1944 31.2229 39.2536C31.0339 39.3129 28.9791 39.5735 27.2903 39.8341L25.7079 39.6209H25.2591C24.675 39.684 24.0952 39.7829 23.5231 39.9171H23.0744C22.543 39.9171 22.0115 39.9171 21.4801 39.9171H20.9959C20.2513 39.898 19.5091 39.8227 18.7757 39.692L18.0436 39.8697L17.4767 40L15.5518 39.5261C14.9388 39.5086 14.3275 39.4532 13.7213 39.3603L13.3552 39.7868C13.0212 39.8141 12.6855 39.8141 12.3514 39.7868C11.681 39.5561 11.0227 39.2912 10.3792 38.993L10.084 38.8982L9.63524 38.756C9.63524 39.0759 9.39905 39.2892 9.22191 39.2418C9.04477 39.1944 8.28896 38.8508 7.81659 38.6376L7.67488 38.3414L7.35602 37.7135C6.8842 38.0778 6.29702 38.2587 5.7027 38.2229L5.4429 37.7253C5.39651 37.6715 5.33808 37.6295 5.27239 37.6028C5.20671 37.576 5.13563 37.5652 5.06499 37.5713C4.26195 37.7727 4.04938 37.0856 3.50615 36.896C3.38806 36.896 3.25815 36.6117 3.30538 36.5524C3.35262 36.4932 3.54158 36.2799 3.1991 36.2562C3.03793 36.2684 2.87608 36.2684 2.71491 36.2562C2.53777 36.197 2.38425 36.043 2.20711 36.0075C1.80559 36.0075 1.78197 35.7113 1.97092 35.5691L2.41968 35.2374C2.06272 35.1083 1.71872 34.9457 1.39226 34.7517C1.16788 34.6213 0.317604 34.4318 0.211319 34.1L0.0577906 33.8039C-0.13116 33.4366 0.187699 33.1641 0.37665 32.8798C0.855037 33.1098 1.23903 33.4992 1.46312 33.9816L1.75835 34.4555L1.67569 34.3488ZM59.5419 23.9824C59.2821 23.8284 59.2467 23.6744 59.4592 23.6389C59.9967 23.5374 60.5229 23.3826 61.0299 23.1768L61.1007 22.8096C61.1952 22.3001 61.8093 22.312 62.1281 22.0158C62.4719 21.7594 62.8397 21.5372 63.2264 21.3524C63.5764 21.1261 63.9392 20.9204 64.3129 20.7363C65.0229 20.5146 65.6171 20.0207 65.9662 19.362C66.0843 19.0895 66.1079 18.8763 66.5449 18.9355C66.9818 18.9947 66.9818 18.8407 67.0054 18.5801C67.0054 18.4972 67.407 18.4853 67.4896 18.3787C67.5723 18.2721 67.407 17.9522 67.4896 17.9403L68.21 17.7271C68.6115 17.1939 69.0839 16.5424 69.261 16.4002C70.0211 15.8386 70.8094 15.3166 71.6229 14.8364L72.2134 14.1255L72.6622 13.5924C73.3943 13.1777 73.9376 12.692 73.8431 12.5143L73.914 12.455L74.0321 12.3603C74.4125 12.1526 74.7336 11.8508 74.965 11.4836C75.2602 11.0689 76.146 9.67092 76.2759 9.36289C76.5485 8.76042 76.7506 8.12831 76.8781 7.47917C76.8781 7.06452 75.6145 6.29444 75.4492 6.29444C75.1234 6.18516 74.7711 6.18516 74.4454 6.29444C74.1974 6.41292 73.0401 6.61432 72.3905 6.79203C71.2711 7.08677 70.1675 7.4387 69.0839 7.84644C68.5643 8.09523 66.5449 9.33919 65.671 9.95525L64.6199 10.1922C64.5609 10.1922 64.5609 10.3462 64.49 10.3936C64.183 10.6424 63.6161 10.8438 63.5807 11.1044C63.4981 11.6968 62.7659 11.3769 62.5651 11.7086C62.5651 11.7086 62.3289 11.7086 62.3171 11.8034C62.0573 12.5143 61.1952 12.8105 60.7346 13.3673C60.2741 13.9241 59.9198 14.552 59.4002 15.1207C58.9405 15.5926 58.5435 16.1223 58.2192 16.6964C57.9358 17.2058 57.5107 17.6442 57.239 18.1773L56.9911 18.663C56.6615 19.0198 56.3796 19.418 56.1526 19.8478L56.2234 19.9188C56.6722 20.2979 56.5777 20.4757 55.9636 20.5823C55.8691 20.5823 55.8219 20.9614 55.8455 21.1628V21.3168C55.8798 21.6793 55.8798 22.0443 55.8455 22.4068L55.5031 22.8214L55.2432 23.1176C55.2485 23.596 55.1767 24.072 55.0307 24.5274C54.9126 24.7288 55.5031 25.3093 55.5149 25.5226C55.5267 25.7359 56.7549 25.2264 57.428 24.7644L58.172 24.5156C58.4909 24.409 58.8333 24.3379 59.1404 24.2194L59.5419 23.9824ZM206.345 20.5467C206.853 20.4046 207.053 20.2269 206.77 20.1558C206.487 20.0847 205.731 19.8004 205.589 19.8833C205.447 19.9662 204.762 20.0728 204.585 20.1795C204.408 20.2861 203.57 20.061 203.156 20.1202C202.743 20.1795 201.432 20.5349 200.983 20.5467C200.535 20.5586 199.531 21.2102 199.259 21.1391H199.011C198.846 21.1391 198.728 21.4116 198.551 21.4708C198.374 21.5301 198.208 21.305 198.114 21.3524L197.724 21.5301C197.367 21.7625 196.964 21.916 196.543 21.9803C195.752 22.2123 194.982 22.5095 194.24 22.8688L193.579 23.0347L192.941 23.2005C192.681 23.5441 192.292 23.7218 192.079 23.6033H191.937L191.607 23.6863C191.288 23.864 190.638 24.2549 190.166 24.563C189.694 24.871 187.993 25.6174 187.686 25.8069L187.367 25.9254L187.072 26.0557C186.931 26.2222 186.777 26.3768 186.611 26.5178C186.611 26.5889 186.529 26.7073 186.611 26.7547L186.682 26.8377C186.924 26.9147 187.174 26.9664 187.426 26.9917C187.995 27.0624 188.57 27.0624 189.139 26.9917L189.469 26.9087L189.871 26.8139C190.468 26.7549 191.069 26.7549 191.666 26.8139L192.185 26.7073L192.575 26.6244C192.812 26.896 193.125 27.09 193.473 27.1812L193.579 27.1101L194.087 26.7192L195.811 26.6125L196.201 26.5415C196.638 26.4585 197.11 26.1979 197.204 26.8495C197.204 26.8495 197.641 26.9324 197.7 26.8495L198.007 26.5533C198.279 26.1979 198.586 25.961 198.704 26.0439C198.822 26.1268 198.988 26.3401 198.87 26.3875C198.751 26.4349 198.692 26.5059 199.247 26.3875C199.802 26.269 200.913 25.4989 200.948 25.7122C200.983 25.9254 201.314 26.2334 201.574 26.0083C201.947 25.6527 202.341 25.3203 202.755 25.0132C202.944 24.9302 203.534 24.7525 203.487 24.6341C203.44 24.5156 204.184 23.9351 204.597 23.6389L204.786 23.2361C204.892 23.011 205.01 22.6793 205.211 22.62C205.636 22.5134 205.695 22.3594 205.766 22.0277C205.837 21.6959 206.309 21.3879 206.345 21.068V20.5467Z" fill="#FFEAD6"/>
</svg>
